# Blender v2.78 (sub 0) OBJ File: ''
# www.blender.org
mtllib PlateSmall01.mtl
o PlateSmall01_PlateCenter1_low_Cube.014
v -0.175951 0.062603 -0.269034
v -0.219002 0.046689 -0.267628
v -0.209651 0.066601 -0.249423
v -0.253501 0.066370 -0.208589
v -0.270909 0.048615 -0.215717
v -0.274774 0.064850 -0.173381
v -0.296590 0.044074 -0.180085
v -0.299265 0.042223 -0.071036
v -0.281056 0.061394 -0.071388
v -0.298640 0.042068 0.061183
v -0.285129 0.061091 0.064725
v -0.290430 0.038570 0.166423
v -0.279864 0.059950 0.162357
v -0.257884 0.039675 0.218778
v -0.249519 0.061733 0.212139
v -0.211019 0.061707 0.252977
v -0.214059 0.040058 0.264934
v -0.187537 0.064684 0.261424
v -0.189915 0.041308 0.280340
v -0.116872 0.048040 0.286863
v -0.114102 0.065937 0.268243
v -0.039226 0.061847 0.271953
v 0.102152 0.040629 0.284407
v 0.101273 0.065250 0.273240
v 0.170762 0.063604 0.272397
v 0.176467 0.045857 0.283696
v 0.233224 0.061432 0.212713
v 0.246066 0.037118 0.213217
v 0.266111 0.061776 0.179576
v 0.277524 0.042879 0.181146
v 0.270417 0.064912 0.062460
v 0.280748 0.048226 0.059271
v 0.271515 0.059851 -0.067880
v 0.281808 0.036456 -0.065682
v 0.269038 0.058361 -0.147045
v 0.281311 0.028959 -0.161497
v 0.242107 0.069267 -0.202321
v 0.251215 0.042182 -0.217559
v 0.175855 0.067818 -0.251756
v 0.184552 0.041099 -0.281521
v 0.134306 0.035369 -0.293346
v 0.111848 0.068076 -0.270823
v -0.055027 0.036472 -0.294226
v -0.048406 0.062683 -0.280294
v -0.150127 0.060664 -0.278281
v -0.155032 0.039004 -0.294815
v -0.183985 0.044128 -0.289994
v -0.218639 -0.085902 -0.261453
v -0.170971 -0.116272 -0.262710
v -0.203224 -0.116419 -0.238952
v -0.277583 -0.077541 -0.209578
v -0.250335 -0.115342 -0.176134
v -0.296128 -0.067593 -0.173416
v -0.271764 -0.112494 -0.145126
v -0.184285 -0.078527 -0.284332
v -0.299769 -0.073129 -0.076763
v -0.299188 -0.080602 0.074059
v -0.284815 -0.089738 0.173227
v -0.250884 -0.088671 0.221338
v -0.199538 -0.087677 0.261287
v -0.093923 -0.070265 0.287397
v -0.039819 0.041849 0.287390
v -0.031154 -0.066571 0.287396
v 0.175250 -0.071351 0.284755
v 0.247094 -0.074132 0.214234
v 0.281838 -0.057226 0.056242
v 0.280291 -0.078565 -0.077759
v 0.249502 -0.092503 -0.207773
v 0.183117 -0.081153 -0.281242
v 0.132717 -0.086143 -0.287633
v -0.059585 -0.078478 -0.293846
v -0.153307 -0.075360 0.284967
v -0.282281 -0.103336 -0.075145
v -0.276062 -0.113299 0.075164
v -0.261394 -0.115393 0.167655
v -0.227826 -0.117375 0.208547
v -0.150251 -0.114877 0.256505
v -0.101036 -0.091679 0.276984
v -0.027834 -0.084751 0.270037
v 0.108780 -0.077937 0.287362
v 0.161750 -0.108349 0.256478
v 0.224416 -0.108350 0.204749
v 0.256902 -0.103595 0.169927
v 0.276972 -0.084452 0.181399
v 0.257125 -0.109273 0.053151
v 0.254435 -0.117102 -0.079225
v 0.277759 -0.080710 -0.164373
v 0.258815 -0.110698 -0.166942
v 0.232534 -0.112203 -0.202944
v 0.162139 -0.112484 -0.268030
v 0.124357 -0.113782 -0.269207
v -0.066373 -0.115451 -0.270897
v -0.157076 -0.077369 -0.291945
v 0.100739 -0.101727 0.267805
v 0.091278 -0.106851 0.223959
v 0.090146 -0.117897 0.176044
v -0.007591 -0.117990 0.163211
v -0.017446 -0.098965 0.224558
v -0.089489 -0.116964 0.203920
v -0.072195 -0.101284 0.235216
v -0.152354 -0.115415 -0.270810
v -0.181613 -0.115871 0.253987
v -0.039526 0.080840 -0.254631
v -0.039973 0.075250 0.248228
v 0.256463 0.076418 -0.066391
v 0.257181 0.077507 0.060982
v 0.247496 0.078742 -0.135616
v 0.221450 0.079561 -0.178253
v 0.163677 0.081089 -0.219068
v 0.095409 0.081830 -0.229196
v -0.138569 0.082157 -0.253205
v -0.257515 0.074858 -0.075824
v -0.167057 0.081994 -0.246431
v -0.188659 0.083078 -0.231263
v -0.225160 0.083752 -0.195906
v -0.242958 0.079556 -0.168075
v -0.265702 0.079364 0.061799
v -0.265851 0.080640 0.156804
v -0.240625 0.081389 0.194226
v -0.203043 0.080892 0.228231
v -0.183092 0.079608 0.245178
v -0.111957 0.081703 0.248418
v 0.096272 0.076356 0.255735
v 0.216830 0.080895 0.203965
v 0.247238 0.078010 0.177005
v 0.157239 0.078333 0.250760
vt 0.1713 0.0725
vt 0.1402 0.0794
vt 0.1458 0.0603
vt 0.1055 0.0424
vt 0.0936 0.0572
vt 0.0779 0.0269
vt 0.0627 0.0463
vt 0.0147 0.9630
vt 0.0964 0.9349
vt 0.0967 0.9560
vt 0.1995 0.9317
vt 0.2036 0.9495
vt 0.2762 0.9249
vt 0.2764 0.9423
vt 0.3191 0.9264
vt 0.3191 0.9438
vt 0.3591 0.9426
vt 0.3622 0.9258
vt 0.3766 0.9465
vt 0.3808 0.9261
vt 0.4304 0.9359
vt 0.4297 0.9548
vt 0.4864 0.9556
vt 0.5936 0.9396
vt 0.5934 0.9599
vt 0.6432 0.9555
vt 0.6453 0.9409
vt 0.7054 0.9683
vt 0.7159 0.9492
vt 0.7425 0.9749
vt 0.7508 0.9587
vt 0.6894 0.1578
vt 0.7850 0.1793
vt 0.6864 0.1735
vt 0.5856 0.1598
vt 0.5874 0.1798
vt 0.5254 0.1623
vt 0.5170 0.1860
vt 0.4824 0.1539
vt 0.4752 0.1746
vt 0.4261 0.1417
vt 0.4169 0.1675
vt 0.3838 0.1605
vt 0.3800 0.1285
vt 0.2525 0.1175
vt 0.2634 0.0974
vt 0.1898 0.0803
vt 0.1831 0.0992
vt 0.1650 0.0911
vt 0.1078 0.1640
vt 0.1284 0.2020
vt 0.0967 0.1932
vt 0.0575 0.1399
vt 0.0365 0.1770
vt 0.0295 0.1255
vt 0.0088 0.1664
vt 0.1370 0.1683
vt 0.0121 0.8472
vt 0.0907 0.8422
vt 0.2101 0.8381
vt 0.2849 0.8372
vt 0.3259 0.8387
vt 0.3703 0.8424
vt 0.4490 0.8495
vt 0.4871 0.9363
vt 0.4973 0.8530
vt 0.6500 0.8655
vt 0.7231 0.8629
vt 0.6813 0.2593
vt 0.5722 0.2689
vt 0.4684 0.2664
vt 0.4006 0.2444
vt 0.3646 0.2432
vt 0.2244 0.2003
vt 0.4054 0.8491
vt 0.0340 0.8045
vt 0.0917 0.8138
vt 0.2139 0.8059
vt 0.2894 0.8106
vt 0.3328 0.8098
vt 0.3989 0.8130
vt 0.4425 0.8312
vt 0.5008 0.8334
vt 0.6051 0.8539
vt 0.6512 0.8304
vt 0.7153 0.8299
vt 0.7544 0.8327
vt 0.7591 0.8566
vt 0.7728 0.3062
vt 0.7835 0.2840
vt 0.6764 0.3065
vt 0.5666 0.3065
vt 0.5067 0.2621
vt 0.4969 0.2878
vt 0.4602 0.2853
vt 0.3859 0.2704
vt 0.3547 0.2678
vt 0.2087 0.2313
vt 0.1559 0.1747
vt 0.1833 0.7676
vt 0.1967 0.7365
vt 0.2259 0.7869
vt 0.2177 0.7061
vt 0.1636 0.6550
vt 0.1291 0.6899
vt 0.0956 0.6423
vt 0.0912 0.6715
vt 0.0350 0.6460
vt 0.0548 0.6849
vt 0.1017 0.7144
vt 0.4303 0.6240
vt 0.3735 0.7057
vt 0.1700 0.3406
vt 0.2263 0.3242
vt 0.3224 0.3664
vt 0.2562 0.3244
vt 0.2710 0.3279
vt 0.4586 0.4695
vt 0.4721 0.5399
vt 0.4363 0.4520
vt 0.4721 0.5732
vt 0.1432 0.3497
vt 0.1055 0.3874
vt 0.0417 0.4805
vt 0.0104 0.5821
vt 0.0088 0.5424
vt 0.3765 0.8212
vt 0.3219 0.7765
vt 0.2866 0.7831
vt 0.5397 0.6411
vt 0.8485 0.4245
vt 0.7827 0.7420
vt 0.8613 0.6877
vt 0.7363 0.7663
vt 0.6989 0.7687
vt 0.6489 0.7507
vt 0.6133 0.7131
vt 0.4979 0.5797
vt 0.5558 0.4302
vt 0.4897 0.5593
vt 0.4897 0.5395
vt 0.4956 0.5018
vt 0.5051 0.4787
vt 0.6369 0.3658
vt 0.6951 0.3248
vt 0.7290 0.3242
vt 0.7661 0.3326
vt 0.7851 0.3375
vt 0.8177 0.3799
vt 0.9118 0.5050
vt 0.9319 0.6014
vt 0.9285 0.6317
vt 0.9350 0.5446
vt 0.4845 0.9765
vt 0.1789 0.0501
vt 0.2017 0.0566
vt 0.2766 0.0760
vt 0.4359 0.1141
vt 0.3831 0.0932
vt 0.4910 0.1307
vt 0.5305 0.1387
vt 0.5864 0.1420
vt 0.7831 0.1409
vt 0.6886 0.1431
vt 0.7300 0.9912
vt 0.6968 0.9879
vt 0.6381 0.9763
vt 0.5900 0.9758
vt 0.3741 0.9635
vt 0.4284 0.9740
vt 0.3527 0.9661
vt 0.3122 0.9641
vt 0.2764 0.9616
vt 0.2030 0.9703
vt 0.0937 0.9777
vt 0.1000 0.0088
vt 0.1237 0.0216
vt 0.1602 0.0400
vt 0.0088 0.9387
vt 0.7843 0.1612
vt 0.6025 0.8300
vt 0.1443 0.2059
vt 0.0194 0.9912
vn -0.2219 0.7775 -0.5885
vn -0.5507 0.3780 -0.7442
vn -0.3465 0.7843 -0.5146
vn -0.4801 0.7990 -0.3621
vn -0.7199 0.3921 -0.5726
vn -0.5548 0.8197 -0.1425
vn -0.8886 0.3585 -0.2860
vn -0.9286 0.3710 -0.0104
vn -0.6295 0.7767 -0.0209
vn -0.9499 0.3108 0.0339
vn -0.7660 0.6427 0.0121
vn -0.9250 0.2291 0.3033
vn -0.8107 0.5268 0.2554
vn -0.7746 0.2130 0.5955
vn -0.6464 0.5699 0.5074
vn -0.4750 0.6123 0.6321
vn -0.5979 0.2204 0.7706
vn -0.2349 0.6782 0.6963
vn -0.3355 0.2869 0.8973
vn -0.0461 0.3959 0.9171
vn -0.0163 0.7578 0.6523
vn 0.0108 0.7518 0.6594
vn 0.0067 0.2263 0.9740
vn 0.0004 0.6563 0.7545
vn 0.2579 0.6969 0.6692
vn 0.3699 0.2909 0.8824
vn 0.6048 0.5361 0.5890
vn 0.6992 0.1841 0.6908
vn 0.7158 0.6082 0.3432
vn 0.8882 0.2551 0.3821
vn 0.7756 0.6308 0.0212
vn 0.9589 0.2833 0.0149
vn 0.8341 0.5503 -0.0380
vn 0.9797 0.1996 -0.0184
vn 0.7765 0.6121 -0.1495
vn 0.9503 0.1904 -0.2463
vn 0.5398 0.7601 -0.3618
vn 0.7616 0.2792 -0.5848
vn 0.2533 0.8301 -0.4969
vn 0.4111 0.3984 -0.8199
vn 0.1175 0.3124 -0.9426
vn 0.0780 0.7986 -0.5968
vn 0.0087 0.2458 -0.9693
vn 0.0056 0.6525 -0.7577
vn -0.0668 0.7056 -0.7054
vn -0.0576 0.2883 -0.9558
vn -0.3158 0.3787 -0.8700
vn -0.5692 -0.3766 -0.7309
vn -0.2028 -0.8712 -0.4472
vn -0.2879 -0.9087 -0.3022
vn -0.7727 -0.3818 -0.5071
vn -0.3176 -0.9392 -0.1307
vn -0.9280 -0.2776 -0.2484
vn -0.4714 -0.8795 -0.0658
vn -0.3716 -0.2853 -0.8835
vn -0.9657 -0.2576 -0.0309
vn -0.9543 -0.2949 0.0481
vn -0.8672 -0.3657 0.3381
vn -0.6777 -0.3669 0.6373
vn -0.4785 -0.3394 0.8099
vn 0.0249 -0.2484 0.9684
vn 0.0208 0.3158 0.9486
vn 0.0020 -0.3547 0.9350
vn 0.3789 -0.2965 0.8767
vn 0.6800 -0.2908 0.6731
vn 0.9784 -0.2057 0.0220
vn 0.9536 -0.3011 -0.0020
vn 0.7428 -0.3580 -0.5658
vn 0.4551 -0.2856 -0.8434
vn 0.0663 -0.3070 -0.9494
vn 0.0040 -0.2761 -0.9611
vn -0.1930 -0.2958 0.9356
vn -0.5347 -0.8449 -0.0175
vn -0.4637 -0.8860 -0.0055
vn -0.4170 -0.8932 0.1682
vn -0.3044 -0.9067 0.2918
vn -0.0075 -0.8694 0.4940
vn 0.1111 -0.7057 0.6998
vn 0.0043 -0.8386 0.5447
vn 0.0199 -0.3424 0.9393
vn 0.1774 -0.8646 0.4701
vn 0.3767 -0.8717 0.3134
vn 0.4757 -0.8659 0.1545
vn 0.8259 -0.4381 0.3550
vn 0.5676 -0.8217 0.0523
vn 0.4710 -0.8821 -0.0011
vn 0.9324 -0.2572 -0.2538
vn 0.5851 -0.7916 -0.1759
vn 0.3598 -0.8752 -0.3233
vn 0.2067 -0.8295 -0.5188
vn 0.0226 -0.8749 -0.4838
vn -0.0071 -0.8733 -0.4872
vn -0.1424 -0.2691 -0.9525
vn -0.0448 -0.8605 0.5075
vn -0.0831 -0.9780 0.1911
vn 0.0012 -0.9950 0.0996
vn -0.0001 -0.9937 0.1125
vn 0.0133 -0.9549 0.2966
vn 0.0822 -0.9838 0.1591
vn 0.1593 -0.9246 0.3459
vn -0.1042 -0.8079 -0.5800
vn -0.1801 -0.7881 0.5887
vn 0.0041 0.9551 -0.2962
vn 0.0105 0.9677 0.2517
vn 0.4162 0.9091 -0.0188
vn 0.3743 0.9273 0.0062
vn 0.3740 0.9231 -0.0900
vn 0.2055 0.9738 -0.0978
vn 0.0873 0.9822 -0.1664
vn 0.0195 0.9920 -0.1248
vn -0.0329 0.9435 -0.3299
vn -0.2620 0.9650 -0.0069
vn -0.1587 0.9094 -0.3844
vn -0.1569 0.9544 -0.2539
vn -0.1992 0.9726 -0.1199
vn -0.3286 0.9429 -0.0548
vn -0.3509 0.9360 -0.0258
vn -0.4887 0.8595 0.1502
vn -0.3434 0.9023 0.2606
vn -0.2385 0.9305 0.2778
vn -0.1478 0.8951 0.4207
vn 0.0399 0.9517 0.3043
vn -0.0132 0.9577 0.2875
vn 0.2608 0.9280 0.2662
vn 0.4190 0.8835 0.2094
vn 0.0753 0.9499 0.3032
usemtl PlateSmall01
s 1
f 1/1/1 2/2/2 3/3/3
f 4/4/4 2/2/2 5/5/5
f 6/6/6 5/5/5 7/7/7
f 6/8/6 8/9/8 9/10/9
f 9/10/9 10/11/10 11/12/11
f 11/12/11 12/13/12 13/14/13
f 13/14/13 14/15/14 15/16/15
f 16/17/16 14/15/14 17/18/17
f 18/19/18 17/18/17 19/20/19
f 18/19/18 20/21/20 21/22/21
f 22/23/22 23/24/23 24/25/24
f 25/26/25 23/24/23 26/27/26
f 27/28/27 26/27/26 28/29/28
f 29/30/29 28/29/28 30/31/30
f 31/32/31 30/33/30 32/34/32
f 33/35/33 32/34/32 34/36/34
f 35/37/35 34/36/34 36/38/36
f 37/39/37 36/38/36 38/40/38
f 39/41/39 38/40/38 40/42/40
f 39/41/39 41/43/41 42/44/42
f 42/44/42 43/45/43 44/46/44
f 45/47/45 43/45/43 46/48/46
f 45/47/45 47/49/47 1/1/1
f 48/50/48 49/51/49 50/52/50
f 51/53/51 50/52/50 52/54/52
f 53/55/53 52/54/52 54/56/54
f 2/2/2 55/57/55 48/50/48
f 2/2/2 51/53/51 5/5/5
f 5/5/5 53/55/53 7/7/7
f 8/9/8 53/58/53 56/59/56
f 10/11/10 56/59/56 57/60/57
f 12/13/12 57/60/57 58/61/58
f 14/15/14 58/61/58 59/62/59
f 59/62/59 17/18/17 14/15/14
f 60/63/60 19/20/19 17/18/17
f 61/64/61 62/65/62 20/21/20
f 63/66/63 23/24/23 62/65/62
f 23/24/23 64/67/64 26/27/26
f 64/67/64 28/29/28 26/27/26
f 65/68/65 30/31/30 28/29/28
f 30/33/30 66/69/66 32/34/32
f 66/69/66 34/36/34 32/34/32
f 67/70/67 36/38/36 34/36/34
f 36/38/36 68/71/68 38/40/38
f 38/40/38 69/72/69 40/42/40
f 69/72/69 41/43/41 40/42/40
f 70/73/70 43/45/43 41/43/41
f 71/74/71 46/48/46 43/45/43
f 46/48/46 55/57/55 47/49/47
f 72/75/72 20/21/20 19/20/19
f 22/23/22 20/21/20 62/65/62
f 54/76/54 56/59/56 53/58/53
f 73/77/73 57/60/57 56/59/56
f 74/78/74 58/61/58 57/60/57
f 75/79/75 59/62/59 58/61/58
f 76/80/76 60/63/60 59/62/59
f 60/63/60 77/81/77 72/75/72
f 72/75/72 78/82/78 61/64/61
f 61/64/61 79/83/79 63/66/63
f 79/83/79 80/84/80 63/66/63
f 80/84/80 81/85/81 64/67/64
f 64/67/64 82/86/82 65/68/65
f 65/68/65 83/87/83 84/88/84
f 83/89/83 66/69/66 84/90/84
f 85/91/85 67/70/67 66/69/66
f 86/92/86 87/93/87 67/70/67
f 88/94/88 68/71/68 87/93/87
f 89/95/89 69/72/69 68/71/68
f 90/96/90 70/73/70 69/72/69
f 91/97/91 71/74/71 70/73/70
f 92/98/92 93/99/93 71/74/71
f 93/99/93 49/51/49 55/57/55
f 94/100/94 95/101/95 81/102/81
f 96/103/96 81/102/81 95/101/95
f 97/104/97 95/101/95 98/105/98
f 99/106/99 98/105/98 100/107/100
f 99/106/99 100/107/100 77/108/77
f 78/109/78 77/108/77 100/107/100
f 79/110/79 100/107/100 98/105/98
f 94/100/94 98/105/98 95/101/95
f 96/103/96 86/111/86 85/112/85
f 52/113/52 50/114/50 92/115/92
f 49/116/49 101/117/101 92/115/92
f 92/115/92 86/111/86 97/104/97
f 90/118/90 89/119/89 91/120/91
f 86/111/86 96/103/96 97/104/97
f 89/119/89 88/121/88 86/111/86
f 49/116/49 92/115/92 50/114/50
f 54/122/54 52/113/52 73/123/73
f 74/124/74 73/123/73 97/104/97
f 76/125/76 75/126/75 99/106/99
f 77/81/77 102/127/102 76/80/76
f 99/106/99 77/108/77 76/125/76
f 75/126/75 74/124/74 99/106/99
f 52/113/52 92/115/92 73/123/73
f 89/119/89 86/111/86 91/120/91
f 83/128/83 82/129/82 96/103/96
f 82/129/82 81/102/81 96/103/96
f 91/120/91 86/111/86 92/115/92
f 99/106/99 74/124/74 97/104/97
f 83/128/83 96/103/96 85/112/85
f 97/104/97 73/123/73 92/115/92
f 103/130/103 104/131/104 105/132/105
f 106/133/106 105/132/105 104/131/104
f 107/134/107 108/135/108 109/136/109
f 109/136/109 110/137/110 105/132/105
f 103/130/103 111/138/111 112/139/112
f 113/140/113 114/141/114 111/138/111
f 115/142/115 116/143/116 112/139/112
f 112/139/112 117/144/117 104/131/104
f 118/145/118 119/146/119 117/144/117
f 120/147/120 121/148/121 122/149/122
f 104/131/104 123/150/123 106/133/106
f 120/147/120 122/149/122 119/146/119
f 117/144/117 119/146/119 122/149/122
f 114/141/114 115/142/115 111/138/111
f 110/137/110 103/130/103 105/132/105
f 105/132/105 107/134/107 109/136/109
f 124/151/124 125/152/125 106/133/106
f 123/150/123 126/153/126 124/151/124
f 117/144/117 122/149/122 104/131/104
f 111/138/111 115/142/115 112/139/112
f 124/151/124 106/133/106 123/150/123
f 112/139/112 104/131/104 103/130/103
f 104/154/104 21/22/21 22/23/22
f 113/155/113 45/47/45 1/1/1
f 111/156/111 44/46/44 45/47/45
f 103/157/103 42/44/42 44/46/44
f 109/158/109 42/44/42 110/159/110
f 109/158/109 37/39/37 39/41/39
f 108/160/108 35/37/35 37/39/37
f 107/161/107 33/35/33 35/37/35
f 105/162/105 31/32/31 33/35/33
f 125/163/125 31/32/31 106/164/106
f 125/165/125 27/28/27 29/30/29
f 124/166/124 25/26/25 27/28/27
f 126/167/126 24/25/24 25/26/25
f 123/168/123 22/23/22 24/25/24
f 121/169/121 21/22/21 122/170/122
f 121/169/121 16/17/16 18/19/18
f 120/171/120 15/16/15 16/17/16
f 119/172/119 13/14/13 15/16/15
f 118/173/118 11/12/11 13/14/13
f 117/174/117 9/10/9 11/12/11
f 112/175/112 6/8/6 9/10/9
f 116/176/116 4/4/4 6/6/6
f 115/177/115 3/3/3 4/4/4
f 114/178/114 1/1/1 3/3/3
f 1/1/1 47/49/47 2/2/2
f 4/4/4 3/3/3 2/2/2
f 6/6/6 4/4/4 5/5/5
f 6/8/6 7/179/7 8/9/8
f 9/10/9 8/9/8 10/11/10
f 11/12/11 10/11/10 12/13/12
f 13/14/13 12/13/12 14/15/14
f 16/17/16 15/16/15 14/15/14
f 18/19/18 16/17/16 17/18/17
f 18/19/18 19/20/19 20/21/20
f 22/23/22 62/65/62 23/24/23
f 25/26/25 24/25/24 23/24/23
f 27/28/27 25/26/25 26/27/26
f 29/30/29 27/28/27 28/29/28
f 31/32/31 29/180/29 30/33/30
f 33/35/33 31/32/31 32/34/32
f 35/37/35 33/35/33 34/36/34
f 37/39/37 35/37/35 36/38/36
f 39/41/39 37/39/37 38/40/38
f 39/41/39 40/42/40 41/43/41
f 42/44/42 41/43/41 43/45/43
f 45/47/45 44/46/44 43/45/43
f 45/47/45 46/48/46 47/49/47
f 48/50/48 55/57/55 49/51/49
f 51/53/51 48/50/48 50/52/50
f 53/55/53 51/53/51 52/54/52
f 2/2/2 47/49/47 55/57/55
f 2/2/2 48/50/48 51/53/51
f 5/5/5 51/53/51 53/55/53
f 8/9/8 7/179/7 53/58/53
f 10/11/10 8/9/8 56/59/56
f 12/13/12 10/11/10 57/60/57
f 14/15/14 12/13/12 58/61/58
f 59/62/59 60/63/60 17/18/17
f 60/63/60 72/75/72 19/20/19
f 61/64/61 63/66/63 62/65/62
f 63/66/63 80/84/80 23/24/23
f 23/24/23 80/84/80 64/67/64
f 64/67/64 65/68/65 28/29/28
f 65/68/65 84/88/84 30/31/30
f 30/33/30 84/90/84 66/69/66
f 66/69/66 67/70/67 34/36/34
f 67/70/67 87/93/87 36/38/36
f 36/38/36 87/93/87 68/71/68
f 38/40/38 68/71/68 69/72/69
f 69/72/69 70/73/70 41/43/41
f 70/73/70 71/74/71 43/45/43
f 71/74/71 93/99/93 46/48/46
f 46/48/46 93/99/93 55/57/55
f 72/75/72 61/64/61 20/21/20
f 22/23/22 21/22/21 20/21/20
f 54/76/54 73/77/73 56/59/56
f 73/77/73 74/78/74 57/60/57
f 74/78/74 75/79/75 58/61/58
f 75/79/75 76/80/76 59/62/59
f 76/80/76 102/127/102 60/63/60
f 60/63/60 102/127/102 77/81/77
f 72/75/72 77/81/77 78/82/78
f 61/64/61 78/82/78 79/83/79
f 79/83/79 94/181/94 80/84/80
f 80/84/80 94/181/94 81/85/81
f 64/67/64 81/85/81 82/86/82
f 65/68/65 82/86/82 83/87/83
f 83/89/83 85/91/85 66/69/66
f 85/91/85 86/92/86 67/70/67
f 86/92/86 88/94/88 87/93/87
f 88/94/88 89/95/89 68/71/68
f 89/95/89 90/96/90 69/72/69
f 90/96/90 91/97/91 70/73/70
f 91/97/91 92/98/92 71/74/71
f 92/98/92 101/182/101 93/99/93
f 93/99/93 101/182/101 49/51/49
f 97/104/97 96/103/96 95/101/95
f 99/106/99 97/104/97 98/105/98
f 79/110/79 78/109/78 100/107/100
f 94/100/94 79/110/79 98/105/98
f 104/154/104 122/170/122 21/22/21
f 113/155/113 111/156/111 45/47/45
f 111/156/111 103/157/103 44/46/44
f 103/157/103 110/159/110 42/44/42
f 109/158/109 39/41/39 42/44/42
f 109/158/109 108/160/108 37/39/37
f 108/160/108 107/161/107 35/37/35
f 107/161/107 105/162/105 33/35/33
f 105/162/105 106/164/106 31/32/31
f 125/163/125 29/180/29 31/32/31
f 125/165/125 124/166/124 27/28/27
f 124/166/124 126/167/126 25/26/25
f 126/167/126 123/168/123 24/25/24
f 123/168/123 104/154/104 22/23/22
f 121/169/121 18/19/18 21/22/21
f 121/169/121 120/171/120 16/17/16
f 120/171/120 119/172/119 15/16/15
f 119/172/119 118/173/118 13/14/13
f 118/173/118 117/174/117 11/12/11
f 117/174/117 112/175/112 9/10/9
f 112/175/112 116/183/116 6/8/6
f 116/176/116 115/177/115 4/4/4
f 115/177/115 114/178/114 3/3/3
f 114/178/114 113/155/113 1/1/1
